<svg xmlns="http://www.w3.org/2000/svg" xmlns:xlink="http://www.w3.org/1999/xlink" width="210.395" height="86.975" viewBox="0 0 210.395 86.975">
  <defs>
    <clipPath id="clip-path">
      <path id="Path_31" data-name="Path 31" d="M1.817-23.306h105.7v-86.77H1.817Z" transform="translate(-1.817 110.076)" fill="none" clip-rule="evenodd"/>
    </clipPath>
  </defs>
  <g id="Group_71" data-name="Group 71" transform="translate(-1.817 110.076)">
    <path id="Path_18" data-name="Path 18" d="M111.3-23.1H233.944v-86.975H111.3Z" transform="translate(-21.733 0)" fill="#03cc82" fill-rule="evenodd"/>
    <path id="Path_19" data-name="Path 19" d="M15.461-72.776H31.135V-88.147H15.461Z" transform="translate(-2.708 -4.353)" fill="#03cc82" fill-rule="evenodd"/>
    <path id="Path_20" data-name="Path 20" d="M15.461-18.393H31.135V-33.764H15.461Z" transform="translate(-2.708 -15.148)" fill="#03cc82" fill-rule="evenodd"/>
    <path id="Path_21" data-name="Path 21" d="M42.9-18.393H58.572V-33.764H42.9Z" transform="translate(-8.154 -15.148)" fill="#03cc82" fill-rule="evenodd"/>
    <path id="Path_22" data-name="Path 22" d="M42.9-45.585H58.572V-60.956H42.9Z" transform="translate(-8.154 -9.75)" fill="#03cc82" fill-rule="evenodd"/>
    <path id="Path_23" data-name="Path 23" d="M56.958-94.236,43.384-86.55l7.837,13.311L64.8-80.924Z" transform="translate(-8.251 -3.144)" fill="#03cc82" fill-rule="evenodd"/>
    <path id="Path_24" data-name="Path 24" d="M92.234-60.723l-14.249-6.4L71.454-53.154,85.7-46.75Z" transform="translate(-13.823 -8.525)" fill="#03cc82" fill-rule="evenodd"/>
    <path id="Path_25" data-name="Path 25" d="M70.335-18.393H86.009V-33.764H70.335Z" transform="translate(-13.601 -15.148)" fill="#03cc82" fill-rule="evenodd"/>
    <path id="Path_26" data-name="Path 26" d="M93.13-97.306,77.972-93.394l3.99,14.864,15.158-3.912Z" transform="translate(-15.116 -2.535)" fill="#03cc82" fill-rule="evenodd"/>
    <path id="Path_27" data-name="Path 27" d="M15.461-45.585H31.135V-60.956H15.461Z" transform="translate(-2.708 -9.75)" fill="#03cc82" fill-rule="evenodd"/>
    <path id="Path_28" data-name="Path 28" d="M160.751-86.976l3.111-5.623h2.546l1.406,22.437h-2.47q-2.846-9.678-6.718-14.005-4.934-5.5-11.311-5.5a14.684,14.684,0,0,0-8.768,2.774,17.308,17.308,0,0,0-5.94,8.322q-2.068,5.548-2.069,15.619,0,9.766,2.069,15.276a16.9,16.9,0,0,0,5.712,8.113,14.3,14.3,0,0,0,8.538,2.6q6.641,0,10.265-3.727a13.22,13.22,0,0,0,3.624-9.621V-55.6a2.235,2.235,0,0,0-.969-1.939,5.636,5.636,0,0,0-3.172-.685h-4.75v-2.662h23.558v2.662h-3.192a4.858,4.858,0,0,0-3.039.742,2.607,2.607,0,0,0-.912,2.149v21.486h-2.508q-1.368-5.02-2.85-9.621a20.06,20.06,0,0,1-6.782,7.016,17.1,17.1,0,0,1-8.91,2.339,25.056,25.056,0,0,1-13.166-3.651,25.815,25.815,0,0,1-9.575-10.287,31.55,31.55,0,0,1-3.515-15A31.6,31.6,0,0,1,124.5-78.11a27.7,27.7,0,0,1,9.672-10.572A22.856,22.856,0,0,1,146.577-92.6a19.461,19.461,0,0,1,6.822,1.205A28.6,28.6,0,0,1,160.751-86.976Z" transform="translate(-23.65 -3.469)"/>
    <path id="Path_29" data-name="Path 29" d="M195.3-91.128h27.723q9.393,0,14.337,4.259A14,14,0,0,1,242.3-75.726q0,6.883-4.554,10.5-6.261,4.982-15.445,4.982H212.283v19.2a3.1,3.1,0,0,0,.8,2.4,4.228,4.228,0,0,0,2.85.913h6.383v2.852H195.3v-2.852h5.648a3.754,3.754,0,0,0,2.461-.665,2.247,2.247,0,0,0,.782-1.806V-85.044a2.919,2.919,0,0,0-.992-2.472,6.516,6.516,0,0,0-3.74-.761H195.3Zm16.985,28.1h7.623q7.245,0,10.45-3.023t3.205-9.982a15.7,15.7,0,0,0-1.441-7.473,8.844,8.844,0,0,0-4.23-3.86q-2.788-1.255-9.16-1.255-4.21,0-5.329.8a3.18,3.18,0,0,0-1.119,2.776Z" transform="translate(-38.405 -3.761)"/>
    <g id="Group_70" data-name="Group 70" transform="translate(1.817 -110.076)" clip-path="url(#clip-path)">
      <path id="Path_30" data-name="Path 30" d="M200.76-110.076H1.817v86.77H200.76Z" transform="translate(-1.817 110.076)" fill="none" stroke="#00cc82" stroke-linecap="round" stroke-linejoin="round" stroke-width="3.634"/>
    </g>
  </g>
</svg>
