<svg xmlns="http://www.w3.org/2000/svg" width="492.796" height="382.096" viewBox="0 0 492.796 382.096">
  <g id="Group_78" data-name="Group 78" transform="translate(-159.038 -377.41)">
    <path id="Path_55" data-name="Path 55" d="M505.937,692.684a477.8,477.8,0,0,1-64.887-4.252c-.7-.09-1.414-.19-2.121-.3-5.279-.751-10.561-1.609-15.7-2.551a339.016,339.016,0,0,1-64.767-18.345c-66.118-26.448-107.689-20.819-130.92-11.44-25.141,10.15-34.8,26.757-34.9,26.924l-.827-.469c.1-.169,9.885-17.023,35.3-27.307,14.9-6.03,32.188-8.665,51.385-7.835,23.962,1.038,50.984,7.513,80.315,19.245A338.114,338.114,0,0,0,423.4,684.651c5.122.939,10.392,1.8,15.662,2.545.7.1,1.409.2,2.109.294,58.3,8.02,114.543,3.183,151.459-2.285,30.429-4.508,50.011-9.778,50.206-9.83l.249.918c-.195.053-19.826,5.337-50.315,9.854a599.532,599.532,0,0,1-86.837,6.539Z" transform="translate(-32.781 41.191)" fill="#03cc83"/>
    <path id="Path_56" data-name="Path 56" d="M506,214.839c-16.762,0-33.08-.784-48.824-2.352-36.178-3.6-69.39-11.377-98.713-23.106-66.118-26.448-107.689-20.819-130.92-11.44-25.141,10.15-34.8,26.757-34.9,26.923l-.827-.469c.1-.169,9.885-17.023,35.3-27.307,14.9-6.03,32.188-8.666,51.385-7.835,23.962,1.038,50.984,7.512,80.315,19.245,66.222,26.489,139.912,27.53,190.068,23.742,54.364-4.108,93.564-14.62,93.954-14.725l.249.917c-.39.106-39.661,10.639-94.11,14.754C534.4,214.288,520.044,214.839,506,214.839Z" transform="translate(-32.78 246.14)" fill="#03cc83"/>
    <rect id="Rectangle_18" data-name="Rectangle 18" width="133.127" height="166.409" transform="translate(182.749 478.583)" fill="#e6e6e6"/>
    <rect id="Rectangle_19" data-name="Rectangle 19" width="28.527" height="19.018" transform="translate(192.021 492.609)" fill="#fff"/>
    <rect id="Rectangle_20" data-name="Rectangle 20" width="110.306" height="6.656" transform="translate(192.258 529.695)" fill="#fff"/>
    <rect id="Rectangle_21" data-name="Rectangle 21" width="110.306" height="6.656" transform="translate(192.258 547.287)" fill="#fff"/>
    <rect id="Rectangle_22" data-name="Rectangle 22" width="110.306" height="6.656" transform="translate(192.258 564.879)" fill="#fff"/>
    <rect id="Rectangle_23" data-name="Rectangle 23" width="110.306" height="6.656" transform="translate(192.258 582.47)" fill="#fff"/>
    <rect id="Rectangle_24" data-name="Rectangle 24" width="110.306" height="6.656" transform="translate(192.258 600.062)" fill="#fff"/>
    <path id="Path_66" data-name="Path 66" d="M473.057,551.368a26.077,26.077,0,1,1-4.041-13.969A26.077,26.077,0,0,1,473.057,551.368Z" transform="translate(-131.031 93.387)" fill="#03cc83"/>
    <path id="Path_67" data-name="Path 67" d="M477.835,543.589l-25.741,25.736c-1.618-2.5-10.631-14.145-10.631-14.145a36.467,36.467,0,0,1,3.69-3.257l7.474,9.966,22.194-22.194A26.042,26.042,0,0,1,477.835,543.589Z" transform="translate(-139.85 87.198)" fill="#fff"/>
    <g id="Group_76" data-name="Group 76" transform="translate(384.694 377.41)">
      <path id="Path_75" data-name="Path 75" d="M818.287,658.452l-10.013,92.12h69.09l3-7.009,4.005,7.009h65.084s-5.006-95.124-14.018-98.128S818.287,658.452,818.287,658.452Z" transform="translate(-733.407 -368.476)" fill="#2f2e41"/>
      <circle id="Ellipse_12" data-name="Ellipse 12" cx="35.046" cy="35.046" r="35.046" transform="translate(108.912 17.622)" fill="#ffb8b8"/>
      <path id="Path_76" data-name="Path 76" d="M894.087,280.459s3,32.042,0,34.044,48.063,1,48.063,1-7.009-29.038,0-43.056Z" transform="translate(-770.156 -205.764)" fill="#ffb8b8"/>
      <path id="Path_77" data-name="Path 77" d="M873.668,330.808s25.765,4.013,27.9-4l13.151,18.02,1,180.234s-107.14,13.017-111.145-8.01,41.053-187.244,41.053-187.244l11.344-.734S871.665,330.808,873.668,330.808Z" transform="translate(-731.714 -229.077)" fill="#d0cde1"/>
      <path id="Path_78" data-name="Path 78" d="M826.965,316.375l-17.181,5.953L760.72,334.344l2,120.156s-42.055,120.156-23.03,129.168,46.06-12.016,54.07-27.035,36.047-223.291,36.047-227.3S826.965,316.375,826.965,316.375Z" transform="translate(-701.874 -224.603)" fill="#03cc83"/>
      <path id="Path_79" data-name="Path 79" d="M971.366,316.375l6.786,5.953,48.063,22.029-24.031,121.157s32.042,110.144,20.026,116.151-30.039,23.03-34.044,13.017S960.575,327.444,971.366,316.375Z" transform="translate(-802.153 -224.603)" fill="#03cc83"/>
      <path id="Path_80" data-name="Path 80" d="M987.57,589.98s-45.059-19.025-46.06-2,51.066,29.038,51.066,24.031S987.57,589.98,987.57,589.98Z" transform="translate(-790.544 -338.054)" fill="#ffb8b8"/>
      <path id="Path_81" data-name="Path 81" d="M818.786,584.528s52.068,39.051,32.042,49.064-46.06-35.046-46.06-35.046Z" transform="translate(-731.903 -339.611)" fill="#ffb8b8"/>
      <path id="Path_82" data-name="Path 82" d="M913.886,157.016a1.933,1.933,0,0,1,1.86-1.1c-16.045-.96-32.944.91-46.367,9.752-3.759,2.476-7.27,5.5-11.55,6.9l3.474,2.724-4.151,1.265,6.108,3.948a5.3,5.3,0,0,1-5.042,1.689,9.175,9.175,0,0,1,5.6,5.719,27.142,27.142,0,0,1,1.339,8.153c1.026-3.983,5.373-6.328,9.479-6.566s8.111,1.117,12.107,2.091a66.975,66.975,0,0,0,26.584,1.023c-3,6.025-.47,13.211,2.079,19.441l5.088,12.44c2.825.284,4.822-2.525,6.95-4.4,1.94-1.713-5.783,13.351-4.587,12.8,1.553-.717,17.945-18.815,18.713-20.343a46.541,46.541,0,0,0,5.287-22.555,32.893,32.893,0,0,0-8.545-21.261c-3.65-3.842-8.7-4.515-12.419-7.708-1.464-1.257-1.47-2.239-3.482-2.971C921.744,157.8,914,156.771,913.886,157.016Z" transform="translate(-754.37 -155.685)" fill="#2f2e41"/>
      <path id="Path_83" data-name="Path 83" d="M743.039,350.843l-7.009-3-56.073,92.12S669.944,463.99,687.967,475s60.078,44.057,60.078,44.057l24.031-37.048s-49.064-23.03-46.06-32.042,19.025-33.043,19.025-33.043Z" transform="translate(-677.183 -238.097)" fill="#03cc83"/>
      <path id="Path_84" data-name="Path 84" d="M1030.177,361.865l13.017,2s54.07,106.138,41.053,126.164-66.087,48.062-66.087,48.062-1-33.043-10.013-45.059l31.04-12.016-17.022-66.086Z" transform="translate(-819.13 -244.113)" fill="#03cc83"/>
    </g>
  </g>
</svg>
